<?xml version="1.0" encoding="UTF-8"?>
<svg version="1.1" xmlns="http://www.w3.org/2000/svg" width="107" height="127">
<path d="M0 0 C2.26048449 1.43849013 3.74115898 2.75575545 4.9453125 5.1640625 C5.77052784 15.22898397 4.93055422 23.39233312 -0.8671875 31.7890625 C-4.06137793 33.79683934 -6.36734353 33.63336082 -10.0546875 33.1640625 C-12.0546875 32.1015625 -12.0546875 32.1015625 -13.0546875 30.1640625 C-13.18057014 24.12169587 -10.43997051 19.83087761 -7.4296875 14.71484375 C-6.21953395 12.4698714 -5.52073507 10.65159141 -5.0546875 8.1640625 C-14.92007531 9.89963999 -23.65920716 13.30662809 -29.83984375 21.54296875 C-36.34050359 31.24565212 -40.49363821 41.31239346 -40.0546875 53.1640625 C-39.33686087 56.54137794 -38.34460892 59.26870528 -35.39453125 61.31640625 C-29.54809948 63.43439572 -21.34185678 63.32102692 -15.46875 61.25390625 C-1.98317546 53.21939728 1.14219581 36.80964479 4.99414062 22.75195312 C8.22500306 11.34476951 8.22500306 11.34476951 11.9453125 7.1640625 C15.1953125 6.7890625 15.1953125 6.7890625 17.9453125 7.1640625 C21.66522613 14.60388975 18.51782352 26.37170879 16.9453125 34.1640625 C17.69554688 34.17824219 18.44578125 34.19242188 19.21875 34.20703125 C28.06639016 34.61932682 35.04408104 36.44860397 41.5703125 42.6640625 C43.12298491 45.48710325 43.54437648 46.99758148 42.9453125 50.1640625 C41.9553125 50.8240625 40.9653125 51.4840625 39.9453125 52.1640625 C39.34203125 51.75414062 38.73875 51.34421875 38.1171875 50.921875 C37.31796875 50.38304687 36.51875 49.84421875 35.6953125 49.2890625 C34.90640625 48.75539062 34.1175 48.22171875 33.3046875 47.671875 C28.11230019 44.35356126 24.12895165 43.14453777 17.9453125 44.1640625 C12.28988494 47.80867137 10.86985482 54.02488 8.9453125 60.1640625 C10.64300781 60.22013672 10.64300781 60.22013672 12.375 60.27734375 C13.85680455 60.34299332 15.33857389 60.40944101 16.8203125 60.4765625 C17.56667969 60.49912109 18.31304687 60.52167969 19.08203125 60.54492188 C21.0449165 60.64218195 22.99859572 60.89448544 24.9453125 61.1640625 C26.9453125 64.1640625 26.9453125 64.1640625 26.6953125 66.7265625 C25.9453125 69.1640625 25.9453125 69.1640625 23.9453125 71.1640625 C22.06591797 71.39111328 22.06591797 71.39111328 19.8125 71.359375 C19.00683594 71.35292969 18.20117188 71.34648438 17.37109375 71.33984375 C16.52933594 71.32308594 15.68757813 71.30632812 14.8203125 71.2890625 C13.97082031 71.28003906 13.12132813 71.27101563 12.24609375 71.26171875 C10.14571366 71.23811897 8.04547806 71.20224733 5.9453125 71.1640625 C5.01671902 77.39148312 4.51008264 81.65452451 7.9453125 87.1640625 C11.69840192 91.20585111 15.38404627 94.94822818 21.13671875 95.296875 C22.31041016 95.29300781 22.31041016 95.29300781 23.5078125 95.2890625 C24.29285156 95.29164062 25.07789062 95.29421875 25.88671875 95.296875 C28.00970227 95.29382616 28.00970227 95.29382616 29.9453125 94.1640625 C29.86020055 89.28858124 29.86020055 89.28858124 27.28515625 85.31640625 C25.99162695 84.14631513 24.69737458 82.97702279 23.40234375 81.80859375 C21.9453125 80.1640625 21.9453125 80.1640625 22.0078125 77.2265625 C22.3171875 76.5459375 22.6265625 75.8653125 22.9453125 75.1640625 C29.3238558 75.32352608 32.71669041 78.81435652 36.9453125 83.1640625 C39.74055468 86.46753053 39.9453125 87.71230211 39.9453125 92.1015625 C38.98249426 97.43718025 36.17684091 100.4657708 32 103.64453125 C26.12999418 107.40007261 20.8117291 108.24234422 13.9453125 107.1640625 C7.69474304 105.30312238 2.99041608 101.18402483 -1.0546875 96.1640625 C-2.4921875 93.2265625 -2.4921875 93.2265625 -3.0546875 91.1640625 C-6.03985862 94.05877389 -8.73939084 97.00208724 -11.3671875 100.2265625 C-15.31565384 104.72934917 -19.21559417 107.78612067 -25.31640625 108.38671875 C-30.47341013 108.16783064 -33.98752905 106.57343448 -37.6640625 102.95703125 C-40.09149391 99.8272812 -41.11792412 97.14094357 -41.0546875 93.1640625 C-39.67769833 86.2684423 -36.72516196 82.13081391 -30.95703125 78.22265625 C-29.0546875 77.1640625 -29.0546875 77.1640625 -26.0546875 76.1640625 C-27.1065625 76.03451172 -27.1065625 76.03451172 -28.1796875 75.90234375 C-37.66702782 74.49728927 -43.57621238 71.35279762 -49.828125 64.10546875 C-54.7794926 56.26843149 -54.15185315 45.58131792 -52.3671875 36.76953125 C-48.36347928 23.77416164 -39.07634402 11.52151154 -27.42578125 4.4140625 C-19.25185854 0.10491049 -9.1270866 -3.71330139 0 0 Z M-18.0546875 74.1640625 C-17.7246875 74.8240625 -17.3946875 75.4840625 -17.0546875 76.1640625 C-15.0746875 76.1640625 -13.0946875 76.1640625 -11.0546875 76.1640625 C-10.7246875 74.8440625 -10.3946875 73.5240625 -10.0546875 72.1640625 C-12.69045433 72.1640625 -15.53982161 73.43246515 -18.0546875 74.1640625 Z M-29.9921875 89.0390625 C-31.27460086 91.60388922 -31.36091599 93.33144898 -31.0546875 96.1640625 C-29.96833481 97.45128275 -29.96833481 97.45128275 -27.3671875 97.5390625 C-22.90419543 97.03381811 -21.19454152 95.30391652 -18.0546875 92.1640625 C-16.08172572 89.68652753 -16.08172572 89.68652753 -15.0546875 87.1640625 C-15.3846875 86.1740625 -15.7146875 85.1840625 -16.0546875 84.1640625 C-21.42905627 83.67548352 -26.09498505 85.26757625 -29.9921875 89.0390625 Z " fill="#077B07" transform="translate(57.0546875,8.8359375)"/>
<path d="M0 0 C1.4540625 0.0309375 1.4540625 0.0309375 2.9375 0.0625 C6.65741363 7.50232725 3.51001102 19.27014629 1.9375 27.0625 C2.68773437 27.07667969 3.43796875 27.09085938 4.2109375 27.10546875 C13.05857766 27.51776432 20.03626854 29.34704147 26.5625 35.5625 C28.11517241 38.38554075 28.53656398 39.89601898 27.9375 43.0625 C26.9475 43.7225 25.9575 44.3825 24.9375 45.0625 C24.33421875 44.65257812 23.7309375 44.24265625 23.109375 43.8203125 C22.31015625 43.28148437 21.5109375 42.74265625 20.6875 42.1875 C19.89859375 41.65382812 19.1096875 41.12015625 18.296875 40.5703125 C13.10448769 37.25199876 9.12113915 36.04297527 2.9375 37.0625 C-2.71792756 40.70710887 -4.13795768 46.9233175 -6.0625 53.0625 C-4.36480469 53.11857422 -4.36480469 53.11857422 -2.6328125 53.17578125 C-1.15100795 53.24143082 0.33076139 53.30787851 1.8125 53.375 C2.55886719 53.39755859 3.30523437 53.42011719 4.07421875 53.44335938 C6.037104 53.54061945 7.99078322 53.79292294 9.9375 54.0625 C11.9375 57.0625 11.9375 57.0625 11.6875 59.625 C10.9375 62.0625 10.9375 62.0625 8.9375 64.0625 C7.05810547 64.28955078 7.05810547 64.28955078 4.8046875 64.2578125 C3.99902344 64.25136719 3.19335938 64.24492188 2.36328125 64.23828125 C1.52152344 64.22152344 0.67976563 64.20476562 -0.1875 64.1875 C-1.03699219 64.17847656 -1.88648438 64.16945313 -2.76171875 64.16015625 C-4.86209884 64.13655647 -6.96233444 64.10068483 -9.0625 64.0625 C-9.99109348 70.28992062 -10.49772986 74.55296201 -7.0625 80.0625 C-3.30941058 84.10428861 0.37623377 87.84666568 6.12890625 88.1953125 C7.30259766 88.19144531 7.30259766 88.19144531 8.5 88.1875 C9.28503906 88.19007812 10.07007812 88.19265625 10.87890625 88.1953125 C13.00188977 88.19226366 13.00188977 88.19226366 14.9375 87.0625 C14.85238805 82.18701874 14.85238805 82.18701874 12.27734375 78.21484375 C10.98381445 77.04475263 9.68956208 75.87546029 8.39453125 74.70703125 C6.9375 73.0625 6.9375 73.0625 7 70.125 C7.4640625 69.1040625 7.4640625 69.1040625 7.9375 68.0625 C14.3160433 68.22196358 17.70887791 71.71279402 21.9375 76.0625 C24.73274218 79.36596803 24.9375 80.61073961 24.9375 85 C23.97468176 90.33561775 21.16902841 93.3642083 16.9921875 96.54296875 C11.12218168 100.29851011 5.8039166 101.14078172 -1.0625 100.0625 C-7.31306946 98.20155988 -12.01739642 94.08246233 -16.0625 89.0625 C-17.5 86.125 -17.5 86.125 -18.0625 84.0625 C-21.04767112 86.95721139 -23.74720334 89.90052474 -26.375 93.125 C-30.32346634 97.62778667 -34.22340667 100.68455817 -40.32421875 101.28515625 C-45.48122263 101.06626814 -48.99534155 99.47187198 -52.671875 95.85546875 C-55.09930641 92.7257187 -56.12573662 90.03938107 -56.0625 86.0625 C-54.68551083 79.1668798 -51.73297446 75.02925141 -45.96484375 71.12109375 C-44.0625 70.0625 -44.0625 70.0625 -41.0625 69.0625 C-44.6925 68.4025 -48.3225 67.7425 -52.0625 67.0625 C-52.0625 66.7325 -52.0625 66.4025 -52.0625 66.0625 C-51.19109375 66.09730469 -50.3196875 66.13210937 -49.421875 66.16796875 C-42.01730576 66.33625441 -35.60516581 65.79892194 -28.48828125 63.71875 C-26.0625 63.0625 -26.0625 63.0625 -23.0625 63.0625 C-22.5675 67.0225 -22.5675 67.0225 -22.0625 71.0625 C-24.55342811 72.30796405 -25.47330733 71.8392578 -28.0625 71.0625 C-27.7325 72.0525 -27.4025 73.0425 -27.0625 74.0625 C-27.7225 74.0625 -28.3825 74.0625 -29.0625 74.0625 C-29.0625 73.4025 -29.0625 72.7425 -29.0625 72.0625 C-30.0525 72.5575 -30.0525 72.5575 -31.0625 73.0625 C-30.7325 74.0525 -30.4025 75.0425 -30.0625 76.0625 C-29.175625 76.000625 -28.28875 75.93875 -27.375 75.875 C-23.67794899 76.08426704 -22.11364409 77.08337951 -19.0625 79.0625 C-18.0725 79.0625 -17.0825 79.0625 -16.0625 79.0625 C-15.7325 75.1025 -15.4025 71.1425 -15.0625 67.0625 C-14.4025 67.0625 -13.7425 67.0625 -13.0625 67.0625 C-13.0625 65.4125 -13.0625 63.7625 -13.0625 62.0625 C-10.66190183 60.86220092 -9.16889351 60.94790257 -6.4921875 60.96484375 C-5.59628906 60.96806641 -4.70039062 60.97128906 -3.77734375 60.97460938 C-2.37162109 60.98717773 -2.37162109 60.98717773 -0.9375 61 C0.00738281 61.00451172 0.95226562 61.00902344 1.92578125 61.01367188 C4.26308387 61.02547643 6.60026061 61.04194241 8.9375 61.0625 C8.6075 59.4125 8.2775 57.7625 7.9375 56.0625 C2.6575 55.7325 -2.6225 55.4025 -8.0625 55.0625 C-5.58423913 40.19293478 -5.58423913 40.19293478 0.1875 35.0625 C5.01624557 33.30659252 8.77782725 33.20323996 13.5 35.08203125 C17.76967173 37.18509873 21.91579178 39.51541813 25.9375 42.0625 C25.59552544 39.18295356 25.59552544 39.18295356 23.9375 36.0625 C21.10326687 34.03728238 18.0866653 32.53720241 14.9375 31.0625 C14.2775 30.7325 13.6175 30.4025 12.9375 30.0625 C10.56347499 29.99133618 8.18749323 29.97840915 5.8125 30 C4.53117187 30.00902344 3.24984375 30.01804687 1.9296875 30.02734375 C0.94226563 30.03894531 -0.04515625 30.05054687 -1.0625 30.0625 C-0.918125 29.08410156 -0.77375 28.10570313 -0.625 27.09765625 C0.38360103 20.050933 1.18788781 13.19855268 0.9375 6.0625 C-1.0425 5.7325 -3.0225 5.4025 -5.0625 5.0625 C-5.7225 7.3725 -6.3825 9.6825 -7.0625 12.0625 C-8.0625 9.0625 -8.0625 9.0625 -7.3203125 7.0546875 C-6.94648437 6.35601562 -6.57265625 5.65734375 -6.1875 4.9375 C-5.81882813 4.23367187 -5.45015625 3.52984375 -5.0703125 2.8046875 C-3.48906047 0.07120532 -3.48906047 0.07120532 0 0 Z M-33.0625 67.0625 C-32.7325 67.7225 -32.4025 68.3825 -32.0625 69.0625 C-30.0825 69.0625 -28.1025 69.0625 -26.0625 69.0625 C-25.7325 67.7425 -25.4025 66.4225 -25.0625 65.0625 C-27.69826683 65.0625 -30.54763411 66.33090265 -33.0625 67.0625 Z M-45 81.9375 C-46.28241336 84.50232672 -46.36872849 86.22988648 -46.0625 89.0625 C-44.97614731 90.34972025 -44.97614731 90.34972025 -42.375 90.4375 C-37.91200793 89.93225561 -36.20235402 88.20235402 -33.0625 85.0625 C-31.08953822 82.58496503 -31.08953822 82.58496503 -30.0625 80.0625 C-30.3925 79.0725 -30.7225 78.0825 -31.0625 77.0625 C-36.43686877 76.57392102 -41.10279755 78.16601375 -45 81.9375 Z " fill="#147714" transform="translate(72.0625,15.9375)"/>
<path d="M0 0 C2.26048449 1.43849013 3.74115898 2.75575545 4.9453125 5.1640625 C5.77052784 15.22898397 4.93055422 23.39233312 -0.8671875 31.7890625 C-4.06137793 33.79683934 -6.36734353 33.63336082 -10.0546875 33.1640625 C-12.0546875 32.1015625 -12.0546875 32.1015625 -13.0546875 30.1640625 C-13.18057014 24.12169587 -10.43997051 19.83087761 -7.4296875 14.71484375 C-6.21953395 12.4698714 -5.52073507 10.65159141 -5.0546875 8.1640625 C-14.92007531 9.89963999 -23.65920716 13.30662809 -29.83984375 21.54296875 C-36.34050359 31.24565212 -40.49363821 41.31239346 -40.0546875 53.1640625 C-39.34053166 56.52410717 -38.35275584 59.25510338 -35.42578125 61.3046875 C-32.10347982 62.50881652 -28.80048136 62.63046316 -25.3046875 62.7890625 C-24.60730469 62.82773438 -23.90992187 62.86640625 -23.19140625 62.90625 C-21.47957932 63.00004874 -19.76717068 63.08312424 -18.0546875 63.1640625 C-18.0546875 63.8240625 -18.0546875 64.4840625 -18.0546875 65.1640625 C-23.3346875 65.1640625 -28.6146875 65.1640625 -34.0546875 65.1640625 C-34.0546875 64.5040625 -34.0546875 63.8440625 -34.0546875 63.1640625 C-34.65861328 63.06029297 -35.26253906 62.95652344 -35.88476562 62.84960938 C-39.11146546 61.83019295 -40.21802762 60.03013103 -42.046875 57.28125 C-43.85521896 53.48232587 -43.69838281 49.79856841 -43.5546875 45.6640625 C-43.55726562 44.84808594 -43.55984375 44.03210937 -43.5625 43.19140625 C-43.46379517 37.04209548 -42.57602746 31.68540246 -38.0546875 27.1640625 C-37.0646875 27.1640625 -36.0746875 27.1640625 -35.0546875 27.1640625 C-34.3946875 23.8640625 -33.7346875 20.5640625 -33.0546875 17.1640625 C-31.7346875 16.8340625 -30.4146875 16.5040625 -29.0546875 16.1640625 C-29.0546875 15.1740625 -29.0546875 14.1840625 -29.0546875 13.1640625 C-30.3746875 13.1640625 -31.6946875 13.1640625 -33.0546875 13.1640625 C-33.7146875 15.1440625 -34.3746875 17.1240625 -35.0546875 19.1640625 C-35.7146875 19.1640625 -36.3746875 19.1640625 -37.0546875 19.1640625 C-37.1784375 20.0921875 -37.1784375 20.0921875 -37.3046875 21.0390625 C-38.0546875 23.1640625 -38.0546875 23.1640625 -39.9921875 24.2265625 C-41.013125 24.690625 -41.013125 24.690625 -42.0546875 25.1640625 C-42.7146875 26.1540625 -43.3746875 27.1440625 -44.0546875 28.1640625 C-44.7146875 28.1640625 -45.3746875 28.1640625 -46.0546875 28.1640625 C-46.70378904 29.74605881 -47.34883444 31.32971974 -47.9921875 32.9140625 C-48.35183594 33.79578125 -48.71148437 34.6775 -49.08203125 35.5859375 C-50.45805718 39.23323513 -51.18191119 42.37053558 -51.15234375 46.2734375 C-51.14912109 47.02753906 -51.14589844 47.78164063 -51.14257812 48.55859375 C-51.13419922 49.33589844 -51.12582031 50.11320312 -51.1171875 50.9140625 C-51.11041992 52.10322266 -51.11041992 52.10322266 -51.10351562 53.31640625 C-51.09177315 55.26565758 -51.07383896 57.21486988 -51.0546875 59.1640625 C-54.60609863 53.83694581 -53.64961788 46.41083149 -53.0546875 40.1640625 C-50.28395843 26.43635938 -41.03621063 13.85442866 -29.6796875 5.7890625 C-21.17352391 0.59986045 -9.88197819 -4.02042459 0 0 Z " fill="#74B173" transform="translate(57.0546875,8.8359375)"/>
<path d="M0 0 C0.495 3.96 0.495 3.96 1 8 C-1.49092811 9.24546405 -2.41080733 8.7767578 -5 8 C-4.67 8.99 -4.34 9.98 -4 11 C-4.66 11 -5.32 11 -6 11 C-6 10.34 -6 9.68 -6 9 C-6.99 9.495 -6.99 9.495 -8 10 C-7.67 10.99 -7.34 11.98 -7 13 C-5.700625 12.87625 -5.700625 12.87625 -4.375 12.75 C-0.22493429 13.05741228 2.12724305 14.09203769 5 17 C7.61285836 20.50973236 10.05104249 24.07717817 12 28 C11.67 28.66 11.34 29.32 11 30 C9.99406757 28.8803014 8.9954151 27.7540588 8 26.625 C7.443125 25.99851562 6.88625 25.37203125 6.3125 24.7265625 C5 23 5 23 5 21 C2.01482888 23.89471139 -0.68470334 26.83802474 -3.3125 30.0625 C-7.26096634 34.56528667 -11.16090667 37.62205817 -17.26171875 38.22265625 C-22.41872263 38.00376814 -25.93284155 36.40937198 -29.609375 32.79296875 C-32.03680641 29.6632187 -33.06323662 26.97688107 -33 23 C-31.62301083 16.1043798 -28.67047446 11.96675141 -22.90234375 8.05859375 C-21 7 -21 7 -18 6 C-21.63 5.34 -25.26 4.68 -29 4 C-29 3.67 -29 3.34 -29 3 C-28.12859375 3.03480469 -27.2571875 3.06960937 -26.359375 3.10546875 C-18.95480576 3.27375441 -12.54266581 2.73642194 -5.42578125 0.65625 C-3 0 -3 0 0 0 Z M-10 4 C-9.67 4.66 -9.34 5.32 -9 6 C-7.02 6 -5.04 6 -3 6 C-2.67 4.68 -2.34 3.36 -2 2 C-4.63576683 2 -7.48513411 3.26840265 -10 4 Z M-21.9375 18.875 C-23.21991336 21.43982672 -23.30622849 23.16738648 -23 26 C-21.91364731 27.28722025 -21.91364731 27.28722025 -19.3125 27.375 C-14.84950793 26.86975561 -13.13985402 25.13985402 -10 22 C-8.02703822 19.52246503 -8.02703822 19.52246503 -7 17 C-7.33 16.01 -7.66 15.02 -8 14 C-13.37436877 13.51142102 -18.04029755 15.10351375 -21.9375 18.875 Z " fill="#237922" transform="translate(49,79)"/>
<path d="M0 0 C1.4540625 0.0309375 1.4540625 0.0309375 2.9375 0.0625 C6.65741363 7.50232725 3.51001102 19.27014629 1.9375 27.0625 C2.68773438 27.07667969 3.43796875 27.09085938 4.2109375 27.10546875 C13.05857766 27.51776432 20.03626854 29.34704147 26.5625 35.5625 C28.11517241 38.38554075 28.53656398 39.89601898 27.9375 43.0625 C26.9475 43.7225 25.9575 44.3825 24.9375 45.0625 C24.33421875 44.65257812 23.7309375 44.24265625 23.109375 43.8203125 C22.31015625 43.28148437 21.5109375 42.74265625 20.6875 42.1875 C19.89859375 41.65382812 19.1096875 41.12015625 18.296875 40.5703125 C13.10448769 37.25199876 9.12113915 36.04297527 2.9375 37.0625 C-2.71792756 40.70710887 -4.13795768 46.9233175 -6.0625 53.0625 C-4.36480469 53.11857422 -4.36480469 53.11857422 -2.6328125 53.17578125 C-1.15100795 53.24143082 0.33076139 53.30787851 1.8125 53.375 C2.55886719 53.39755859 3.30523437 53.42011719 4.07421875 53.44335938 C6.037104 53.54061945 7.99078322 53.79292294 9.9375 54.0625 C11.9375 57.0625 11.9375 57.0625 11.6875 59.625 C10.9375 62.0625 10.9375 62.0625 8.9375 64.0625 C7.05810547 64.28955078 7.05810547 64.28955078 4.8046875 64.2578125 C3.99902344 64.25136719 3.19335938 64.24492188 2.36328125 64.23828125 C1.52152344 64.22152344 0.67976563 64.20476562 -0.1875 64.1875 C-1.03699219 64.17847656 -1.88648437 64.16945313 -2.76171875 64.16015625 C-4.86209884 64.13655647 -6.96233444 64.10068483 -9.0625 64.0625 C-9.99109348 70.28992062 -10.49772986 74.55296201 -7.0625 80.0625 C-3.30941058 84.10428861 0.37623377 87.84666568 6.12890625 88.1953125 C7.30259766 88.19144531 7.30259766 88.19144531 8.5 88.1875 C9.67755859 88.19136719 9.67755859 88.19136719 10.87890625 88.1953125 C13.00188977 88.19226366 13.00188977 88.19226366 14.9375 87.0625 C14.85238805 82.18701874 14.85238805 82.18701874 12.27734375 78.21484375 C10.98381445 77.04475263 9.68956208 75.87546029 8.39453125 74.70703125 C6.9375 73.0625 6.9375 73.0625 7 70.125 C7.309375 69.444375 7.61875 68.76375 7.9375 68.0625 C14.3160433 68.22196358 17.70887791 71.71279402 21.9375 76.0625 C24.73274218 79.36596803 24.9375 80.61073961 24.9375 85 C23.9611934 90.62437501 20.8338721 93.69534802 16.25 97 C15.486875 97.350625 14.72375 97.70125 13.9375 98.0625 C13.2775 97.7325 12.6175 97.4025 11.9375 97.0625 C12.49179688 96.67578125 13.04609375 96.2890625 13.6171875 95.890625 C14.70386719 95.10945313 14.70386719 95.10945313 15.8125 94.3125 C16.89144531 93.54679687 16.89144531 93.54679687 17.9921875 92.765625 C21.28059464 89.88661795 21.86586477 87.54802769 22.5 83.25 C22.41057176 79.56968391 21.32391649 77.8430596 18.8125 75.1875 C15.75382928 72.45276182 12.99768562 70.95376026 8.9375 70.0625 C9.5975 71.7125 10.2575 73.3625 10.9375 75.0625 C11.5975 75.0625 12.2575 75.0625 12.9375 75.0625 C16.29753846 78.52435781 17.72684781 81.21749962 17.9375 86.0625 C17.2775 87.0525 16.6175 88.0425 15.9375 89.0625 C15.2775 89.0625 14.6175 89.0625 13.9375 89.0625 C13.9375 89.7225 13.9375 90.3825 13.9375 91.0625 C7.41958608 91.4165919 2.76228551 91.10151852 -3.0625 88.0625 C-3.0625 87.4025 -3.0625 86.7425 -3.0625 86.0625 C-4.0525 85.7325 -5.0425 85.4025 -6.0625 85.0625 C-10.81874849 79.96651947 -12.20828809 76.88099278 -12.1875 70.0625 C-12.19007812 69.216875 -12.19265625 68.37125 -12.1953125 67.5 C-12.0625 65.0625 -12.0625 65.0625 -11.0625 61.0625 C-4.4625 61.0625 2.1375 61.0625 8.9375 61.0625 C8.4425 58.5875 8.4425 58.5875 7.9375 56.0625 C2.6575 55.7325 -2.6225 55.4025 -8.0625 55.0625 C-5.58423913 40.19293478 -5.58423913 40.19293478 0.1875 35.0625 C5.01624557 33.30659252 8.77782725 33.20323996 13.5 35.08203125 C17.76967173 37.18509873 21.91579178 39.51541813 25.9375 42.0625 C25.59552544 39.18295356 25.59552544 39.18295356 23.9375 36.0625 C21.10326687 34.03728238 18.0866653 32.53720241 14.9375 31.0625 C14.2775 30.7325 13.6175 30.4025 12.9375 30.0625 C10.56347499 29.99133618 8.18749323 29.97840915 5.8125 30 C4.53117187 30.00902344 3.24984375 30.01804687 1.9296875 30.02734375 C0.94226563 30.03894531 -0.04515625 30.05054687 -1.0625 30.0625 C-0.918125 29.08410156 -0.77375 28.10570313 -0.625 27.09765625 C0.38360103 20.050933 1.18788781 13.19855268 0.9375 6.0625 C-2.0325 5.5675 -2.0325 5.5675 -5.0625 5.0625 C-5.7225 7.3725 -6.3825 9.6825 -7.0625 12.0625 C-8.0625 9.0625 -8.0625 9.0625 -7.3203125 7.0546875 C-6.94648437 6.35601562 -6.57265625 5.65734375 -6.1875 4.9375 C-5.81882812 4.23367187 -5.45015625 3.52984375 -5.0703125 2.8046875 C-3.48906047 0.07120532 -3.48906047 0.07120532 0 0 Z " fill="#BFE5BE" transform="translate(72.0625,15.9375)"/>
<path d="M0 0 C1.32 0.33 2.64 0.66 4 1 C4 1.99 4 2.98 4 4 C3.01 4.33 2.02 4.66 1 5 C-0.02700444 7.32891096 -0.02700444 7.32891096 -0.6875 10.0625 C-0.93886719 10.98160156 -1.19023437 11.90070312 -1.44921875 12.84765625 C-1.63097656 13.55792969 -1.81273438 14.26820312 -2 15 C-2.99 15 -3.98 15 -5 15 C-5 16.65 -5 18.3 -5 20 C-5.99 20.33 -6.98 20.66 -8 21 C-10.19044045 33.44305211 -10.19044045 33.44305211 -7.8828125 45.45703125 C-6.39712495 47.52062563 -6.39712495 47.52062563 -4 50 C-4 50.66 -4 51.32 -4 52 C-3.34 52 -2.68 52 -2 52 C-2 52.66 -2 53.32 -2 54 C2.29 54.33 6.58 54.66 11 55 C11 55.99 11 56.98 11 58 C8.525 58.495 8.525 58.495 6 59 C6 58.34 6 57.68 6 57 C2.9254644 57.7763932 2.9254644 57.7763932 1 60 C1 59.34 1 58.68 1 58 C-2.3 57.67 -5.6 57.34 -9 57 C-8.67 56.34 -8.34 55.68 -8 55 C-9.32 54.67 -10.64 54.34 -12 54 C-12 53.34 -12 52.68 -12 52 C-12.99 52 -13.98 52 -15 52 C-15.33 50.35 -15.66 48.7 -16 47 C-16.66 47 -17.32 47 -18 47 C-19.53885835 36.42034884 -20.3690306 25.40445413 -13.69140625 16.1953125 C-12.375 14.875 -12.375 14.875 -10 13 C-9.34 12.34 -8.68 11.68 -8 11 C-7.01 11 -6.02 11 -5 11 C-4.731875 9.9275 -4.46375 8.855 -4.1875 7.75 C-3.13772173 4.43491072 -2.25387672 2.56122354 0 0 Z " fill="#0C770D" transform="translate(24,21)"/>
<path d="M0 0 C0.27236126 7.68664008 0.2285466 15.57548378 -2 23 C-2.99 23.66 -3.98 24.32 -5 25 C-5.66 24.01 -6.32 23.02 -7 22 C-9.50037734 24.17424117 -10.43628586 25.73045798 -11 29 C-11.66 29 -12.32 29 -13 29 C-12.979375 29.721875 -12.95875 30.44375 -12.9375 31.1875 C-12.99820559 33.91925138 -13.39258535 36.34256091 -14 39 C-14.66 39 -15.32 39 -16 39 C-16 39.99 -16 40.98 -16 42 C-17.92391317 43.7864908 -19.33851881 44.87197138 -21.9375 45.375 C-24.30262512 45.90626122 -24.30262512 45.90626122 -26.375 48.5 C-29.34876295 51.33215519 -30.97913254 51.71947436 -35 52 C-33.03590161 50.52474388 -31.07478425 49.05298479 -29.0703125 47.6328125 C-17.20351203 38.43485069 -14.64978126 21.79132244 -11 8 C-10.34 8 -9.68 8 -9 8 C-8.71125 6.865625 -8.4225 5.73125 -8.125 4.5625 C-7.75375 3.386875 -7.3825 2.21125 -7 1 C-4.57661181 -0.21169409 -2.71837311 0 0 0 Z " fill="#0B790B" transform="translate(74,20)"/>
<path d="M0 0 C0.66 0.33 1.32 0.66 2 1 C1.34 3.64 0.68 6.28 0 9 C1.13179687 8.97679688 2.26359375 8.95359375 3.4296875 8.9296875 C4.91145175 8.91093099 6.39322312 8.89273066 7.875 8.875 C8.62136719 8.85824219 9.36773437 8.84148437 10.13671875 8.82421875 C12.09194461 8.8066041 14.04742021 8.89679811 16 9 C16.66 9.66 17.32 10.32 18 11 C17.67 12.65 17.34 14.3 17 16 C10.4 15.67 3.8 15.34 -3 15 C-3.33 15.99 -3.66 16.98 -4 18 C-4.33 18.99 -4.66 19.98 -5 21 C-5.66 21 -6.32 21 -7 21 C-7 24.96 -7 28.92 -7 33 C-11 34 -11 34 -13.375 32.625 C-14.24125 32.08875 -15.1075 31.5525 -16 31 C-17.99788438 30.65421232 -19.99759451 30.31856451 -22 30 C-22.33 29.34 -22.66 28.68 -23 28 C-23.99 27.34 -24.98 26.68 -26 26 C-24.7934375 26.0309375 -24.7934375 26.0309375 -23.5625 26.0625 C-21.06645115 26.29633621 -21.06645115 26.29633621 -20 25 C-18.33382885 24.95936168 -16.66611905 24.957279 -15 25 C-14.505 20.545 -14.505 20.545 -14 16 C-11.525 16.99 -11.525 16.99 -9 18 C-9 17.34 -9 16.68 -9 16 C-6.36 14.68 -3.72 13.36 -1 12 C-1.33 11.34 -1.66 10.68 -2 10 C-1.66015625 7.6171875 -1.66015625 7.6171875 -1.0625 4.875 C-0.86785156 3.96492188 -0.67320313 3.05484375 -0.47265625 2.1171875 C-0.31667969 1.41851562 -0.16070312 0.71984375 0 0 Z " fill="#0E7A0F" transform="translate(64,62)"/>
<path d="M0 0 C2.0625 0.25 2.0625 0.25 4 1 C5.60503133 4.21006265 5.26782728 7.66431131 5.3125 11.1875 C5.34150391 11.93064453 5.37050781 12.67378906 5.40039062 13.43945312 C5.46497454 19.10793335 4.22882821 22.33080232 1 27 C-1.29632131 28.70372226 -2.740763 28.96206288 -5.5625 29.375 C-8 29 -8 29 -9.9375 27.375 C-11 25 -11 25 -10.5 22.25 C-9.29834201 19.64640769 -8.07734175 17.54881815 -6.5 15.1875 C-4.08443378 11.51102238 -3.14195304 8.20308843 -2.45703125 3.8828125 C-2 2 -2 2 0 0 Z " fill="#0C790B" transform="translate(56,12)"/>
<path d="M0 0 C0.125 3.375 0.125 3.375 0 7 C-0.66 7.66 -1.32 8.32 -2 9 C-2.41666667 12 -2.41666667 12 -2 15 C2.00948615 17.67299077 5.28490049 17.71140098 10 17 C12.96731398 15.16343011 12.96731398 15.16343011 15 13 C15.33 13 15.66 13 16 13 C16.3125 16.25 16.3125 16.25 16 20 C11.95843577 24.26609557 8.8157918 24.82139753 3.1875 25.375 C-0.84980644 25.29167848 -3.55207128 24.19851664 -6.72265625 21.7109375 C-9.13156102 18.48433111 -8.52410251 14.81846114 -8 11 C-6.68 10.67 -5.36 10.34 -4 10 C-4.185625 9.236875 -4.37125 8.47375 -4.5625 7.6875 C-5 5 -5 5 -4 2 C-1 0 -1 0 0 0 Z " fill="#177217" transform="translate(27,90)"/>
<path d="M0 0 C4.91511449 0.42129553 6.84412512 2.30531722 10 6 C12.08406263 8.94830662 14.06690862 11.9508971 16 15 C15.67 15.66 15.34 16.32 15 17 C13.99406757 15.8803014 12.9954151 14.7540588 12 13.625 C11.443125 12.99851562 10.88625 12.37203125 10.3125 11.7265625 C9 10 9 10 9 8 C6.01482888 10.89471139 3.31529666 13.83802474 0.6875 17.0625 C-3.25484545 21.55830647 -7.17839335 24.68803211 -13.296875 25.1875 C-19.03260449 24.87954137 -21.98834742 23.01165258 -26 19 C-23 19 -23 19 -21.3125 20.5 C-17.96876562 22.66890879 -14.82203715 22.54702019 -11 22 C-8.16024516 21.10237634 -5.14350592 20.14350592 -3 18 C-2.95919217 16.00041636 -2.95745644 13.99954746 -3 12 C-3.66 12 -4.32 12 -5 12 C-5.33 12.99 -5.66 13.98 -6 15 C-6.99 15.33 -7.98 15.66 -9 16 C-8.37658569 12.27683123 -6.70328007 9.89999517 -4.5 6.875 C-2.05517657 3.55530546 -2.05517657 3.55530546 0 0 Z " fill="#247926" transform="translate(45,92)"/>
<path d="M0 0 C4.63065128 0 7.05942598 1.54780547 10.375 4.5625 C13.01267131 7.37668851 14.54625103 9.27713379 14.6875 13.1875 C13.67975978 18.7758776 12.0570109 21.37825016 7.5 24.625 C6.9121875 25.00914063 6.324375 25.39328125 5.71875 25.7890625 C3.93717351 26.93961974 3.93717351 26.93961974 2.60546875 28.62109375 C-0.2597531 31.08197772 -3.52045641 30.45519346 -7.1328125 30.359375 C-11.26260518 29.84174431 -14.66537139 28.49888209 -18 26 C-18.66 25.01 -19.32 24.02 -20 23 C-13.60916031 22.63129771 -13.60916031 22.63129771 -10.625 24.4375 C-9.7435695 25.28502933 -8.86464608 26.13535392 -8 27 C-5.93335994 27.23790731 -5.93335994 27.23790731 -3.5625 27.25 C-2.35787109 27.28867188 -2.35787109 27.28867188 -1.12890625 27.328125 C-0.42636719 27.21984375 0.27617188 27.1115625 1 27 C1.66 26.01 2.32 25.02 3 24 C3.66 24 4.32 24 5 24 C4.938125 23.236875 4.87625 22.47375 4.8125 21.6875 C4.874375 20.800625 4.93625 19.91375 5 19 C5.515625 18.566875 6.03125 18.13375 6.5625 17.6875 C8.21636439 16.12062552 8.21636439 16.12062552 7.9765625 14.0390625 C7.71403123 12.01686221 7.36188248 10.00680287 7 8 C6.01 7.67 5.02 7.34 4 7 C4 6.34 4 5.68 4 5 C3.34 5 2.68 5 2 5 C1.34 3.35 0.68 1.7 0 0 Z " fill="#2B712B" transform="translate(81,86)"/>
<path d="M0 0 C1.4540625 0.0309375 1.4540625 0.0309375 2.9375 0.0625 C6.65741363 7.50232725 3.51001102 19.27014629 1.9375 27.0625 C2.68773438 27.07667969 3.43796875 27.09085938 4.2109375 27.10546875 C13.05857766 27.51776432 20.03626854 29.34704147 26.5625 35.5625 C28.11517241 38.38554075 28.53656398 39.89601898 27.9375 43.0625 C26.9475 43.7225 25.9575 44.3825 24.9375 45.0625 C24.33421875 44.65257812 23.7309375 44.24265625 23.109375 43.8203125 C22.31015625 43.28148437 21.5109375 42.74265625 20.6875 42.1875 C19.89859375 41.65382812 19.1096875 41.12015625 18.296875 40.5703125 C13.16590725 37.29125033 9.0628283 35.93587712 2.9375 37.0625 C-0.00223281 39.41668376 -0.00223281 39.41668376 -2.0625 42.0625 C-2.7225 42.0625 -3.3825 42.0625 -4.0625 42.0625 C-3.15376425 39.00584338 -2.38719175 37.33944297 0.0625 35.25 C4.89544765 33.25378249 8.70803871 33.17547348 13.5 35.08203125 C17.76967173 37.18509873 21.91579178 39.51541813 25.9375 42.0625 C25.59552544 39.18295356 25.59552544 39.18295356 23.9375 36.0625 C21.10326687 34.03728238 18.0866653 32.53720241 14.9375 31.0625 C14.2775 30.7325 13.6175 30.4025 12.9375 30.0625 C10.56347499 29.99133618 8.18749323 29.97840915 5.8125 30 C4.53117187 30.00902344 3.24984375 30.01804687 1.9296875 30.02734375 C0.94226563 30.03894531 -0.04515625 30.05054687 -1.0625 30.0625 C-0.918125 29.08410156 -0.77375 28.10570313 -0.625 27.09765625 C0.38360103 20.050933 1.18788781 13.19855268 0.9375 6.0625 C-2.0325 5.5675 -2.0325 5.5675 -5.0625 5.0625 C-6.0525 8.5275 -6.0525 8.5275 -7.0625 12.0625 C-8.0625 9.0625 -8.0625 9.0625 -7.3203125 7.0546875 C-6.94648437 6.35601562 -6.57265625 5.65734375 -6.1875 4.9375 C-5.81882812 4.23367187 -5.45015625 3.52984375 -5.0703125 2.8046875 C-3.48906047 0.07120532 -3.48906047 0.07120532 0 0 Z " fill="#C7EEC7" transform="translate(72.0625,15.9375)"/>
<path d="M0 0 C0.66 0 1.32 0 2 0 C2.33 1.65 2.66 3.3 3 5 C3.99 5 4.98 5 6 5 C6 5.66 6 6.32 6 7 C6.7425 7.12375 7.485 7.2475 8.25 7.375 C10.83201026 7.96182051 12.65431418 8.82715709 15 10 C18.38681307 10.9313736 20.65478949 11.11507017 24 10 C24 10.66 24 11.32 24 12 C24.99 11.01 25.98 10.02 27 9 C23.37 8.34 19.74 7.68 16 7 C16 6.34 16 5.68 16 5 C15.34 4.67 14.68 4.34 14 4 C14.99 4 15.98 4 17 4 C17 4.66 17 5.32 17 6 C17.98742187 5.97679688 18.97484375 5.95359375 19.9921875 5.9296875 C21.27351563 5.91164063 22.55484375 5.89359375 23.875 5.875 C25.78925781 5.84019531 25.78925781 5.84019531 27.7421875 5.8046875 C31 6 31 6 33 8 C32.67 8.33 32.34 8.66 32 9 C33.66611905 9.042721 35.33382885 9.04063832 37 9 C37.33 8.67 37.66 8.34 38 8 C40.5 7.875 40.5 7.875 43 8 C44 9 44 9 44.0625 12.0625 C44.041875 13.031875 44.02125 14.00125 44 15 C43.505 13.02 43.505 13.02 43 11 C42.48953125 11.20496094 41.9790625 11.40992187 41.453125 11.62109375 C32.192464 15.0527926 21.71294703 16.21065282 12 14 C7.05105366 11.52552683 3.03550873 7.63937682 0 3 C0 2.01 0 1.02 0 0 Z " fill="#1B761D" transform="translate(6,68)"/>
<path d="M0 0 C0.33 0.66 0.66 1.32 1 2 C1.66 1.67 2.32 1.34 3 1 C11.45823602 0.06317006 17.90780999 1.22252855 25 6 C26.765625 7.5 26.765625 7.5 28 9 C28.1875 11.6875 28.1875 11.6875 28 14 C24.55863186 12.69191335 21.40676991 11.15365963 18.1875 9.375 C13.38601806 6.9599689 10.33321897 6.27685167 5 7 C2.058779 8.11112793 0.55963001 8.98454233 -0.96875 11.7578125 C-1.71951532 13.47484059 -2.36760131 15.2359405 -3 17 C-3.33 17 -3.66 17 -4 17 C-3.48822144 12.64988225 -2.69446031 9.02434323 -1 5 C-0.63128912 3.34080104 -0.28718326 1.6752357 0 0 Z " fill="#257D25" transform="translate(70,44)"/>
<path d="M0 0 C1.32 0.33 2.64 0.66 4 1 C4 1.99 4 2.98 4 4 C3.01 4.33 2.02 4.66 1 5 C-0.02700444 7.32891096 -0.02700444 7.32891096 -0.6875 10.0625 C-0.93886719 10.98160156 -1.19023437 11.90070312 -1.44921875 12.84765625 C-1.63097656 13.55792969 -1.81273437 14.26820312 -2 15 C-2.99 15 -3.98 15 -5 15 C-5 16.65 -5 18.3 -5 20 C-5.99 20.33 -6.98 20.66 -8 21 C-8.144375 22.0725 -8.28875 23.145 -8.4375 24.25 C-8.83749442 26.91662949 -9.27591924 29.41399729 -10 32 C-10 31.01 -10 30.02 -10 29 C-10.66 29 -11.32 29 -12 29 C-11.97679687 29.66386719 -11.95359375 30.32773437 -11.9296875 31.01171875 C-11.75043937 39.78207381 -11.75043937 39.78207381 -14 44 C-13.34 44 -12.68 44 -12 44 C-12.33 44.66 -12.66 45.32 -13 46 C-13.66 45.67 -14.32 45.34 -15 45 C-14.979375 44.01 -14.95875 43.02 -14.9375 42 C-14.92918572 37.93431926 -15.43531533 34.02337824 -16 30 C-15.67 30 -15.34 30 -15 30 C-14.01 25.38 -13.02 20.76 -12 16 C-11.34 16 -10.68 16 -10 16 C-9.67 14.68 -9.34 13.36 -9 12 C-7.68 11.67 -6.36 11.34 -5 11 C-4.731875 9.9275 -4.46375 8.855 -4.1875 7.75 C-3.13772173 4.43491072 -2.25387672 2.56122354 0 0 Z " fill="#09780A" transform="translate(24,21)"/>
<path d="M0 0 C2.125 0.375 2.125 0.375 4 1 C3.54109375 1.66644531 3.0821875 2.33289063 2.609375 3.01953125 C-4.03084626 12.99381319 -8.45254503 22.78128431 -8 35 C-7.28584416 38.36004467 -6.29806834 41.09104088 -3.37109375 43.140625 C-0.04879232 44.34475402 3.25420614 44.46640066 6.75 44.625 C7.44738281 44.66367188 8.14476563 44.70234375 8.86328125 44.7421875 C10.57510818 44.83598624 12.28751682 44.91906174 14 45 C14 45.66 14 46.32 14 47 C8.72 47 3.44 47 -2 47 C-2 46.34 -2 45.68 -2 45 C-2.60392578 44.89623047 -3.20785156 44.79246094 -3.83007812 44.68554688 C-7.05677796 43.66613045 -8.16334012 41.86606853 -9.9921875 39.1171875 C-11.80053146 35.31826337 -11.64369531 31.63450591 -11.5 27.5 C-11.50257812 26.68402344 -11.50515625 25.86804688 -11.5078125 25.02734375 C-11.40910767 18.87803298 -10.52133996 13.52133996 -6 9 C-5.01 9 -4.02 9 -3 9 C-2.87625 7.88625 -2.7525 6.7725 -2.625 5.625 C-2 2 -2 2 0 0 Z " fill="#85BF85" transform="translate(25,27)"/>
<path d="M0 0 C1.13643966 3.40931897 0.86747764 4.00335456 -0.4375 7.1875 C-0.72496094 7.90292969 -1.01242188 8.61835937 -1.30859375 9.35546875 C-1.53675781 9.89816406 -1.76492187 10.44085938 -2 11 C-0.30230469 11.05607422 -0.30230469 11.05607422 1.4296875 11.11328125 C2.91149205 11.17893082 4.39326139 11.24537851 5.875 11.3125 C6.62136719 11.33505859 7.36773437 11.35761719 8.13671875 11.38085938 C10.099604 11.47811945 12.05328322 11.73042294 14 12 C16 15 16 15 15.75 17.5625 C15 20 15 20 13 22 C11.12060547 22.22705078 11.12060547 22.22705078 8.8671875 22.1953125 C8.06152344 22.18886719 7.25585938 22.18242188 6.42578125 22.17578125 C5.58402344 22.15902344 4.74226563 22.14226562 3.875 22.125 C2.60076172 22.11146484 2.60076172 22.11146484 1.30078125 22.09765625 C-0.79959884 22.07405647 -2.89983444 22.03818483 -5 22 C-6.11882892 28.22599929 -6.11882892 28.22599929 -4.75 34.25 C-4.47027344 34.90484375 -4.19054688 35.5596875 -3.90234375 36.234375 C-2.8168566 38.35835852 -1.57079903 40.20480111 0 42 C-2.8751945 40.71111971 -5.0071564 39.46733017 -7 37 C-7.97423583 33.96462577 -8.13468429 31.17644559 -8.125 28 C-8.12757812 27.154375 -8.13015625 26.30875 -8.1328125 25.4375 C-8 23 -8 23 -7 19 C-0.4 19 6.2 19 13 19 C12.505 16.525 12.505 16.525 12 14 C6.72 13.67 1.44 13.34 -4 13 C-2.25 3.375 -2.25 3.375 0 0 Z " fill="#C9F0C9" transform="translate(68,58)"/>
<path d="M0 0 C0.66 0.33 1.32 0.66 2 1 C1.34 3.64 0.68 6.28 0 9 C1.13179688 8.97679688 2.26359375 8.95359375 3.4296875 8.9296875 C4.91145175 8.91093099 6.39322312 8.89273066 7.875 8.875 C8.62136719 8.85824219 9.36773437 8.84148437 10.13671875 8.82421875 C12.09194461 8.8066041 14.04742021 8.89679811 16 9 C16.66 9.66 17.32 10.32 18 11 C17.67 12.65 17.34 14.3 17 16 C10.73 15.67 4.46 15.34 -2 15 C-2 11.52023497 -1.6465936 8.64461639 -1 5.25 C-0.814375 4.26515625 -0.62875 3.2803125 -0.4375 2.265625 C-0.293125 1.51796875 -0.14875 0.7703125 0 0 Z " fill="#207C1F" transform="translate(64,62)"/>
<path d="M0 0 C0.66 0.33 1.32 0.66 2 1 C-0.97 3.97 -0.97 3.97 -4 7 C-3.34 7 -2.68 7 -2 7 C-1.67 7.99 -1.34 8.98 -1 10 C-1.66 10 -2.32 10 -3 10 C-3.0825 10.61875 -3.165 11.2375 -3.25 11.875 C-4 14 -4 14 -5.9375 15.0625 C-6.9584375 15.5265625 -6.9584375 15.5265625 -8 16 C-8.66 16.99 -9.32 17.98 -10 19 C-10.66 19 -11.32 19 -12 19 C-12.64910154 20.58199631 -13.29414694 22.16565724 -13.9375 23.75 C-14.29714844 24.63171875 -14.65679688 25.5134375 -15.02734375 26.421875 C-16.40336968 30.06917263 -17.12722369 33.20647308 -17.09765625 37.109375 C-17.09443359 37.86347656 -17.09121094 38.61757813 -17.08789062 39.39453125 C-17.07951172 40.17183594 -17.07113281 40.94914062 -17.0625 41.75 C-17.05573242 42.93916016 -17.05573242 42.93916016 -17.04882812 44.15234375 C-17.03708565 46.10159508 -17.01915146 48.05080738 -17 50 C-20.55141113 44.67288331 -19.59493038 37.24676899 -19 31 C-16.40145767 18.12540391 -8.77240705 9.33773995 0 0 Z " fill="#82BC82" transform="translate(23,18)"/>
<path d="M0 0 C1.35282168 2.70564337 0.41095179 4.09032785 -0.45703125 6.8515625 C-1.29880506 10.18232218 -1.50086138 13.54224971 -1.75390625 16.9609375 C-2 19 -2 19 -3 20 C-2.835 20.9075 -2.67 21.815 -2.5 22.75 C-2.01327234 25.91372977 -2.19045884 27.94173339 -3 31 C-2.34 31 -1.68 31 -1 31 C-1.33 33.31 -1.66 35.62 -2 38 C-2.66 37.34 -3.32 36.68 -4 36 C-4 35.01 -4 34.02 -4 33 C-4.66 33 -5.32 33 -6 33 C-7.60254402 21.98250986 -8.06224743 11.28528687 -1.36328125 1.64453125 C-0.91339844 1.10183594 -0.46351562 0.55914062 0 0 Z " fill="#187718" transform="translate(12,35)"/>
<path d="M0 0 C0.66 0.66 1.32 1.32 2 2 C1.67 2.66 1.34 3.32 1 4 C-1.109375 4.30859375 -1.109375 4.30859375 -3.75 4.4375 C-8.01192168 4.75926902 -10.39152368 5.66510356 -14 8 C-16.125 7.625 -16.125 7.625 -18 7 C-18.99 7.33 -19.98 7.66 -21 8 C-20.67 8.99 -20.34 9.98 -20 11 C-21.65 10.67 -23.3 10.34 -25 10 C-24.07954023 6.92318223 -23.45635772 5.33122737 -20.8203125 3.41796875 C-13.88886992 0.25361453 -7.6334556 -1.16401008 0 0 Z " fill="#187115" transform="translate(53,10)"/>
<path d="M0 0 C2.17988491 3.26982737 2.20654585 4.06154606 2.0625 7.8125 C1.93986689 13.46884592 1.93986689 13.46884592 3 19 C4.95021083 20.22527948 4.95021083 20.22527948 7 21 C7.33 21.99 7.66 22.98 8 24 C2.125 23.125 2.125 23.125 1 22 C1 23.98 1 25.96 1 28 C-1.74277578 24.80009492 -3.6302836 21.99500618 -5 18 C-4.34 17.67 -3.68 17.34 -3 17 C-2.53101037 14.1840151 -2.53101037 14.1840151 -2.375 10.9375 C-2.30023438 9.83277344 -2.22546875 8.72804688 -2.1484375 7.58984375 C-2.09945312 6.73519531 -2.05046875 5.88054687 -2 5 C-1.34 5 -0.68 5 0 5 C0 3.35 0 1.7 0 0 Z " fill="#197919" transform="translate(59,78)"/>
<path d="M0 0 C0.125 3.375 0.125 3.375 0 7 C-0.66 7.66 -1.32 8.32 -2 9 C-2.50042146 11.91538029 -2.50042146 11.91538029 -2 15 C-0.12498069 17.37719693 -0.12498069 17.37719693 2 19 C1.01 19 0.02 19 -1 19 C-1 20.65 -1 22.3 -1 24 C-3.49361571 22.79618552 -5.68143083 21.54571278 -8 20 C-8.29296875 17.8359375 -8.29296875 17.8359375 -8.1875 15.375 C-8.16042969 14.55773437 -8.13335938 13.74046875 -8.10546875 12.8984375 C-8.07066406 12.27195312 -8.03585938 11.64546875 -8 11 C-6.68 10.67 -5.36 10.34 -4 10 C-4.185625 9.236875 -4.37125 8.47375 -4.5625 7.6875 C-5 5 -5 5 -4 2 C-1 0 -1 0 0 0 Z " fill="#156E13" transform="translate(27,90)"/>
<path d="M0 0 C2.50719458 2.32649587 4.32183601 4.82681521 6.1875 7.6875 C6.71730469 8.49574219 7.24710938 9.30398437 7.79296875 10.13671875 C8.19128906 10.75160156 8.58960938 11.36648437 9 12 C8.67 12.66 8.34 13.32 8 14 C6.99406757 12.8803014 5.9954151 11.7540588 5 10.625 C4.443125 9.99851562 3.88625 9.37203125 3.3125 8.7265625 C2 7 2 7 2 5 C-0.98517112 7.89471139 -3.68470334 10.83802474 -6.3125 14.0625 C-10.25484545 18.55830647 -14.17839335 21.68803211 -20.296875 22.1875 C-26.03260449 21.87954137 -28.98834742 20.01165258 -33 16 C-30 16 -30 16 -28.3125 17.5 C-24.95383425 19.678594 -21.83508968 19.5108656 -18 19 C-10.68624389 16.85631286 -7.02455426 12.39835894 -3.25 6.0625 C-2.8375 5.381875 -2.425 4.70125 -2 4 C-1.34 4 -0.68 4 0 4 C0 2.68 0 1.36 0 0 Z " fill="#C1EAC1" transform="translate(52,95)"/>
<path d="M0 0 C5.28 0 10.56 0 16 0 C13.55869299 6.10326753 10.53030053 11.20754826 6 16 C1.9076871 16.95487301 0.30021302 16.60009832 -3.4375 14.875 C-5 13 -5 13 -5.5 10.0625 C-4.89701598 6.36922289 -3.7529123 5.41922596 -1 3 C-0.67 2.01 -0.34 1.02 0 0 Z M-1.9375 5.875 C-3.21991336 8.43982672 -3.30622849 10.16738648 -3 13 C-1.91364731 14.28722025 -1.91364731 14.28722025 0.6875 14.375 C5.15049207 13.86975561 6.86014598 12.13985402 10 9 C11.97296178 6.52246503 11.97296178 6.52246503 13 4 C12.67 3.01 12.34 2.02 12 1 C6.62563123 0.51142102 1.95970245 2.10351375 -1.9375 5.875 Z " fill="#A4D5A2" transform="translate(29,92)"/>
<path d="M0 0 C0.125 2.375 0.125 2.375 0 5 C-2.80848837 7.80848837 -5.60799875 7.37871397 -9.375 7.5 C-13.72296723 7.64160047 -17.10628913 7.9375778 -21 10 C-21.99 9.67 -22.98 9.34 -24 9 C-22.02 8.01 -20.04 7.02 -18 6 C-21.63 5.34 -25.26 4.68 -29 4 C-29 3.67 -29 3.34 -29 3 C-28.12859375 3.03480469 -27.2571875 3.06960937 -26.359375 3.10546875 C-18.95480576 3.27375441 -12.54266581 2.73642194 -5.42578125 0.65625 C-3 0 -3 0 0 0 Z M-10 4 C-9.67 4.66 -9.34 5.32 -9 6 C-7.02 6 -5.04 6 -3 6 C-2.67 4.68 -2.34 3.36 -2 2 C-4.63576683 2 -7.48513411 3.26840265 -10 4 Z " fill="#C9F0C3" transform="translate(49,79)"/>
<path d="M0 0 C0.33 0 0.66 0 1 0 C0.69503838 13.33513992 -3.80518402 28.77967857 -12.7265625 38.97265625 C-16.25237233 42.25771695 -19.0506511 43.75856835 -24 44 C-22.03590161 42.52474388 -20.07478425 41.05298479 -18.0703125 39.6328125 C-6.20351203 30.43485069 -3.64978126 13.79132244 0 0 Z " fill="#C4ECC5" transform="translate(63,28)"/>
<path d="M0 0 C2.26048449 1.43849013 3.74115898 2.75575545 4.9453125 5.1640625 C5.01647632 7.53808751 5.02940335 9.91406927 5.0078125 12.2890625 C4.99878906 13.57039063 4.98976562 14.85171875 4.98046875 16.171875 C4.96886719 17.15929687 4.95726562 18.14671875 4.9453125 19.1640625 C4.6153125 19.1640625 4.2853125 19.1640625 3.9453125 19.1640625 C3.91953125 18.10445312 3.89375 17.04484375 3.8671875 15.953125 C3.8109147 14.56506249 3.75356717 13.17704325 3.6953125 11.7890625 C3.68113281 11.09039062 3.66695312 10.39171875 3.65234375 9.671875 C3.58495468 7.38688604 3.58495468 7.38688604 2.9453125 4.1640625 C-0.85016456 0.78113729 -7.0886397 1.49846792 -11.93359375 1.625 C-17.75959328 2.10854276 -22.34654959 4.84510798 -27.32421875 7.73046875 C-28.22527344 8.20355469 -29.12632813 8.67664062 -30.0546875 9.1640625 C-30.7146875 8.8340625 -31.3746875 8.5040625 -32.0546875 8.1640625 C-23.4783813 1.30301754 -11.01224185 -4.48026569 0 0 Z " fill="#CAEFCC" transform="translate(57.0546875,8.8359375)"/>
<path d="M0 0 C3 1 3 1 4 3 C4.17830582 5.7447404 4.27767275 8.44079052 4.3125 11.1875 C4.34150391 11.93064453 4.37050781 12.67378906 4.40039062 13.43945312 C4.46490878 19.10216176 3.15458189 22.30234846 0 27 C-0.33 27 -0.66 27 -1 27 C-0.835 25.700625 -0.67 24.40125 -0.5 23.0625 C0.28556277 15.39496481 0.08036438 7.69712133 0 0 Z " fill="#4D924D" transform="translate(57,12)"/>
<path d="M0 0 C0.33 0.66 0.66 1.32 1 2 C1.99 1.67 2.98 1.34 4 1 C4.33 1.99 4.66 2.98 5 4 C5.99 4 6.98 4 8 4 C8.1875 6.375 8.1875 6.375 8 9 C4.77856724 11.14762184 3.7404533 11.561068 0 11 C-1.9375 9.375 -1.9375 9.375 -3 7 C-1.76923077 1.76923077 -1.76923077 1.76923077 0 0 Z " fill="#157617" transform="translate(48,30)"/>
<path d="M0 0 C1.16743976 3.50231927 0.78060939 5.27363882 0.125 8.875 C-0.05804688 9.90367188 -0.24109375 10.93234375 -0.4296875 11.9921875 C-0.93649939 14.66509954 -1.458897 17.33383794 -2 20 C-2.66 20 -3.32 20 -4 20 C-4 20.99 -4 21.98 -4 23 C-7.33333333 26 -7.33333333 26 -10 26 C-8.89123467 22.16971977 -7.40472851 18.76799059 -5.5625 15.25 C-3.03005002 10.31996424 -1.4002211 5.35043835 0 0 Z " fill="#247A24" transform="translate(62,39)"/>
<path d="M0 0 C1.4540625 0.0309375 1.4540625 0.0309375 2.9375 0.0625 C4.37957941 2.94665883 4.03144887 5.47971528 4 8.6875 C3.99097656 9.87601563 3.98195313 11.06453125 3.97265625 12.2890625 C3.96105469 13.20429688 3.94945313 14.11953125 3.9375 15.0625 C3.2775 15.0625 2.6175 15.0625 1.9375 15.0625 C1.6075 12.0925 1.2775 9.1225 0.9375 6.0625 C-2.0325 5.5675 -2.0325 5.5675 -5.0625 5.0625 C-6.0525 8.5275 -6.0525 8.5275 -7.0625 12.0625 C-8.0625 9.0625 -8.0625 9.0625 -7.3203125 7.0546875 C-6.94648437 6.35601562 -6.57265625 5.65734375 -6.1875 4.9375 C-5.81882812 4.23367187 -5.45015625 3.52984375 -5.0703125 2.8046875 C-3.48906047 0.07120532 -3.48906047 0.07120532 0 0 Z " fill="#98C299" transform="translate(72.0625,15.9375)"/>
<path d="M0 0 C0.66 0 1.32 0 2 0 C2.33 0.99 2.66 1.98 3 3 C0.23442897 7.14835655 -1.99265062 9.23233998 -6.5625 11.25 C-7.74005859 11.78367187 -7.74005859 11.78367187 -8.94140625 12.328125 C-11 13 -11 13 -13 12 C-13 11.01 -13 10.02 -13 9 C-12.34 9 -11.68 9 -11 9 C-11 8.34 -11 7.68 -11 7 C-10.37351563 6.74605469 -9.74703125 6.49210937 -9.1015625 6.23046875 C-8.28429688 5.88628906 -7.46703125 5.54210937 -6.625 5.1875 C-5.81289063 4.85105469 -5.00078125 4.51460938 -4.1640625 4.16796875 C-1.69852542 3.05560918 -1.69852542 3.05560918 0 0 Z " fill="#1E7A1E" transform="translate(50,65)"/>
<path d="M0 0 C1.64826111 2.96687001 2.44271087 5.65626525 3 9 C2.01 9.66 1.02 10.32 0 11 C-0.33 11.99 -0.66 12.98 -1 14 C-2.65 14 -4.3 14 -6 14 C-6 12.35 -6 10.7 -6 9 C-5.34 9 -4.68 9 -4 9 C-3.896875 8.2575 -3.79375 7.515 -3.6875 6.75 C-2.95746496 3.82985982 -1.93210602 2.26812446 0 0 Z " fill="#057D04" transform="translate(67,40)"/>
<path d="M0 0 C0.66 0.33 1.32 0.66 2 1 C1.67 2.093125 1.34 3.18625 1 4.3125 C-0.13086649 7.84578884 -0.13086649 7.84578884 0 11 C-1.32 11.33 -2.64 11.66 -4 12 C-4 14.97 -4 17.94 -4 21 C-5.99815999 18.00276002 -6.64541327 16.51458025 -7 13 C-6.328125 10.4296875 -6.328125 10.4296875 -5.25 7.875 C-4.90453125 7.02679688 -4.5590625 6.17859375 -4.203125 5.3046875 C-3.03407882 3.06528086 -1.88438566 1.6569598 0 0 Z " fill="#8CBD8A" transform="translate(23,89)"/>
<path d="M0 0 C6.39083969 -0.36870229 6.39083969 -0.36870229 9.375 1.4375 C10.2564305 2.28502933 11.13535392 3.13535392 12 4 C13.84891946 4.23363881 15.70488031 4.41303635 17.5625 4.5625 C19.08037109 4.68818359 19.08037109 4.68818359 20.62890625 4.81640625 C21.80259766 4.90728516 21.80259766 4.90728516 23 5 C20.45593438 7.54406562 19.40748394 7.32580106 15.875 7.375 C10.5269796 7.28364091 6.31641877 6.23460956 2 3 C1.34 2.01 0.68 1.02 0 0 Z " fill="#98CB9A" transform="translate(61,109)"/>
<path d="M0 0 C0.66 0 1.32 0 2 0 C2.33 1.65 2.66 3.3 3 5 C3.99 5 4.98 5 6 5 C6 5.66 6 6.32 6 7 C6.7425 7.12375 7.485 7.2475 8.25 7.375 C10.80141485 7.95486701 12.7267573 8.73708739 15 10 C15 10.66 15 11.32 15 12 C15.99 12.33 16.98 12.66 18 13 C18 13.33 18 13.66 18 14 C12.65130078 14.50939993 10.14410399 13.36708449 6 10 C0 3.97260274 0 3.97260274 0 0 Z " fill="#70AB70" transform="translate(6,68)"/>
<path d="M0 0 C1.32 0.66 2.64 1.32 4 2 C4 5.96 4 9.92 4 14 C2.68 14.33 1.36 14.66 0 15 C-1.5625 12.6875 -1.5625 12.6875 -3 10 C-2.67 9.01 -2.34 8.02 -2 7 C-1.34 7.66 -0.68 8.32 0 9 C0.33 8.34 0.66 7.68 1 7 C1.33 6.34 1.66 5.68 2 5 C1.34 5 0.68 5 0 5 C0 3.35 0 1.7 0 0 Z " fill="#067907" transform="translate(53,81)"/>
<path d="M0 0 C2.91517292 1.07401108 4.77810176 1.77810176 7 4 C7.125 6.625 7.125 6.625 7 9 C2.50202887 7.31326082 -1.72886302 5.18326108 -6 3 C-4.125 1.9375 -4.125 1.9375 -2 1 C-1.34 1.33 -0.68 1.66 0 2 C0 1.34 0 0.68 0 0 Z " fill="#347835" transform="translate(91,49)"/>
<path d="M0 0 C0.66 0.66 1.32 1.32 2 2 C1.67 2.66 1.34 3.32 1 4 C-1.14453125 4.37890625 -1.14453125 4.37890625 -3.8125 4.5625 C-7.55453682 4.83182223 -7.55453682 4.83182223 -11.19921875 5.65234375 C-11.79347656 5.76707031 -12.38773438 5.88179687 -13 6 C-13.66 5.34 -14.32 4.68 -15 4 C-13.35 4 -11.7 4 -10 4 C-10.33 3.01 -10.66 2.02 -11 1 C-7.07703567 -0.30765478 -4.13997567 -0.1971417 0 0 Z " fill="#136E16" transform="translate(53,10)"/>
<path d="M0 0 C4.75 0.75 4.75 0.75 7 3 C7 4.32 7 5.64 7 7 C6.34 7 5.68 7 5 7 C5 7.66 5 8.32 5 9 C3.68 9 2.36 9 1 9 C0.67 6.03 0.34 3.06 0 0 Z " fill="#2B8B2B" transform="translate(45,92)"/>
<path d="M0 0 C2.49118953 3.7367843 2.2065226 5.74451819 2.125 10.1875 C2.10695313 11.45980469 2.08890625 12.73210937 2.0703125 14.04296875 C2.03550781 15.50669922 2.03550781 15.50669922 2 17 C0.68 17 -0.64 17 -2 17 C-2 13.04 -2 9.08 -2 5 C-1.34 5 -0.68 5 0 5 C0 3.35 0 1.7 0 0 Z " fill="#297E2A" transform="translate(59,78)"/>
<path d="M0 0 C1 1 1 1 1.0625 4.0625 C1.041875 5.031875 1.02125 6.00125 1 7 C0.67 5.68 0.34 4.36 0 3 C-0.59167969 3.2165625 -1.18335938 3.433125 -1.79296875 3.65625 C-9.64147627 6.42179262 -9.64147627 6.42179262 -14 6 C-9.90309597 1.44788441 -6.19814056 -0.51651171 0 0 Z " fill="#237F24" transform="translate(49,76)"/>
<path d="M0 0 C0.66 0 1.32 0 2 0 C1.67 3.96 1.34 7.92 1 12 C2.918125 12.12375 4.83625 12.2475 6.8125 12.375 C12.625 12.75 12.625 12.75 16 15 C10.06 15 4.12 15 -2 15 C-1.34 10.05 -0.68 5.1 0 0 Z " fill="#C7F1C7" transform="translate(73,31)"/>
<path d="M0 0 C2.375 -0.125 2.375 -0.125 5 0 C5.66 0.66 6.32 1.32 7 2 C6.67 3.65 6.34 5.3 6 7 C-0.27 6.67 -6.54 6.34 -13 6 C-13 5.67 -13 5.34 -13 5 C-11.85660156 4.95101562 -10.71320313 4.90203125 -9.53515625 4.8515625 C-8.04424527 4.77654811 -6.55336108 4.70099972 -5.0625 4.625 C-4.30775391 4.5940625 -3.55300781 4.563125 -2.77539062 4.53125 C-0.84492605 4.4273685 1.07942081 4.22104386 3 4 C3.33 3.34 3.66 2.68 4 2 C2.68 1.34 1.36 0.68 0 0 Z " fill="#246824" transform="translate(75,71)"/>
<path d="M0 0 C8.57142857 -0.28571429 8.57142857 -0.28571429 12 2 C12 2.99 12 3.98 12 5 C7.12335991 5.34833144 4.22949995 4.41685712 0 2 C0 1.34 0 0.68 0 0 Z " fill="#1B721B" transform="translate(79,46)"/>
<path d="M0 0 C1.98 1.32 3.96 2.64 6 4 C5.01 4.33 4.02 4.66 3 5 C3 6.65 3 8.3 3 10 C0.50638429 8.79618552 -1.68143083 7.54571278 -4 6 C-3.67 4.68 -3.34 3.36 -3 2 C-2.67 2.66 -2.34 3.32 -2 4 C-1.34 2.68 -0.68 1.36 0 0 Z " fill="#2D802F" transform="translate(23,104)"/>
<path d="M0 0 C1.58294782 -0.05437607 3.16644256 -0.09296271 4.75 -0.125 C5.63171875 -0.14820312 6.5134375 -0.17140625 7.421875 -0.1953125 C10.1135858 0.00860498 11.69904974 0.63448279 14 2 C13.67 2.99 13.34 3.98 13 5 C10.03 4.67 7.06 4.34 4 4 C4 3.34 4 2.68 4 2 C2.68 1.34 1.36 0.68 0 0 Z " fill="#217222" transform="translate(65,71)"/>
<path d="M0 0 C2.31 0 4.62 0 7 0 C7 0.99 7 1.98 7 3 C6.34 3 5.68 3 5 3 C4.34 4.32 3.68 5.64 3 7 C1.54207116 7.05399736 0.08357288 7.09279177 -1.375 7.125 C-2.18710938 7.14820312 -2.99921875 7.17140625 -3.8359375 7.1953125 C-6 7 -6 7 -8 5 C-4.58810914 4.14702729 -2.3577347 3.9579444 1 5 C1.66 5 2.32 5 3 5 C3 4.01 3 3.02 3 2 C2.01 2 1.02 2 0 2 C0 1.34 0 0.68 0 0 Z " fill="#176C1A" transform="translate(79,107)"/>
<path d="M0 0 C2.9375 1.0625 2.9375 1.0625 6 3 C6.875 6.6875 6.875 6.6875 7 10 C5.02 10.99 5.02 10.99 3 12 C2 8 1 4 0 0 Z " fill="#156F16" transform="translate(87,92)"/>
<path d="M0 0 C0.66 0.33 1.32 0.66 2 1 C1.67 1.99 1.34 2.98 1 4 C0.19175781 3.98839844 -0.61648437 3.97679688 -1.44921875 3.96484375 C-3.05216797 3.95130859 -3.05216797 3.95130859 -4.6875 3.9375 C-5.74324219 3.92589844 -6.79898438 3.91429688 -7.88671875 3.90234375 C-10.74930589 3.99213632 -13.24840637 4.21170561 -16 5 C-16.33 5.66 -16.66 6.32 -17 7 C-17 6.34 -17 5.68 -17 5 C-17.99 4.67 -18.98 4.34 -20 4 C-16.30182856 1.65180374 -12.56433708 1.60336615 -8.3125 1.4375 C-3.79140067 1.63453434 -3.79140067 1.63453434 0 0 Z " fill="#2A772D" transform="translate(48,84)"/>
<path d="M0 0 C5.42700017 0.38764287 8.28762789 2.02862518 12 6 C12.875 9.8125 12.875 9.8125 13 13 C12.01 13.66 11.02 14.32 10 15 C9.34 14.67 8.68 14.34 8 14 C8.33 13.01 8.66 12.02 9 11 C9.66 11.33 10.32 11.66 11 12 C10.65802544 9.12045356 10.65802544 9.12045356 9 6 C6.15827264 3.98949088 3.15211076 2.46579636 0 1 C0 0.67 0 0.34 0 0 Z " fill="#B6D7B7" transform="translate(87,46)"/>
<path d="M0 0 C0.33 0.66 0.66 1.32 1 2 C1.66 2.33 2.32 2.66 3 3 C2.67 3.33 2.34 3.66 2 4 C1.92811529 6.29581781 2.00353568 8.57517069 2.0625 10.87109375 C2 13 2 13 1 15 C0.34 15 -0.32 15 -1 15 C-1.22134176 12.87631556 -1.42670007 10.75095976 -1.625 8.625 C-1.74101563 7.44164062 -1.85703125 6.25828125 -1.9765625 5.0390625 C-1.98429687 4.03617188 -1.99203125 3.03328125 -2 2 C-1.34 1.34 -0.68 0.68 0 0 Z " fill="#097407" transform="translate(56,12)"/>
<path d="M0 0 C2.0625 0.4375 2.0625 0.4375 4 1 C2.87540329 2.77108948 1.75030797 4.54186236 0.625 6.3125 C-0.00148438 7.29863281 -0.62796875 8.28476562 -1.2734375 9.30078125 C-2.49651613 11.21287929 -3.7409356 13.1114034 -5 15 C-4.42479715 10.39837718 -3.41785936 3.41785936 0 0 Z " fill="#8CC08B" transform="translate(25,27)"/>
<path d="M0 0 C0.33 0 0.66 0 1 0 C1.33 1.65 1.66 3.3 2 5 C7.29441695 5.50423019 9.81413519 4.18923033 14 1 C12.79618552 3.49361571 11.54571278 5.68143083 10 8 C5.65413172 8.39507893 3.67996503 8.45331002 0 6 C-0.1875 2.875 -0.1875 2.875 0 0 Z " fill="#C3ECC2" transform="translate(25,100)"/>
<path d="M0 0 C0.66 0.33 1.32 0.66 2 1 C2 2.32 2 3.64 2 5 C4.64 4.67 7.28 4.34 10 4 C10 4.66 10 5.32 10 6 C6.77856724 8.14762184 5.7404533 8.561068 2 8 C0.125 6.25 0.125 6.25 -1 4 C-0.6875 1.75 -0.6875 1.75 0 0 Z " fill="#2D6F2D" transform="translate(46,33)"/>
<path d="M0 0 C1.04336284 3.39092922 1.22584687 6.4617323 1 10 C0.01 11.485 0.01 11.485 -1 13 C-1.66 13 -2.32 13 -3 13 C-3.33 13.99 -3.66 14.98 -4 16 C-3.6083965 10.04492601 -2.62875405 5.37180176 0 0 Z " fill="#3E853C" transform="translate(67,21)"/>
<path d="M0 0 C0 0.33 0 0.66 0 1 C-0.81984375 1.04898438 -1.6396875 1.09796875 -2.484375 1.1484375 C-3.56203125 1.22320312 -4.6396875 1.29796875 -5.75 1.375 C-7.35101563 1.47941406 -7.35101563 1.47941406 -8.984375 1.5859375 C-11.95295153 1.82896358 -11.95295153 1.82896358 -14.203125 3.1015625 C-14.79609375 3.39804688 -15.3890625 3.69453125 -16 4 C-16.99 3.67 -17.98 3.34 -19 3 C-12.26069238 -1.17837072 -7.76344915 -3.14234846 0 0 Z " fill="#D5F6D2" transform="translate(44,85)"/>
<path d="M0 0 C0.99 0.495 0.99 0.495 2 1 C2.4921875 2.85546875 2.4921875 2.85546875 2.875 5.1875 C3.76077132 9.6592165 5.23616803 12.40701844 8 16 C4.50627743 14.4338485 1.76151233 12.93839501 0.3125 9.25 C-0.11719431 6.15620095 -0.05996827 3.11834997 0 0 Z " fill="#D3F8D0" transform="translate(60,84)"/>
<path d="M0 0 C0.33 0 0.66 0 1 0 C0.85805236 2.06277107 0.71127784 4.12521031 0.5625 6.1875 C0.48128906 7.33605469 0.40007812 8.48460937 0.31640625 9.66796875 C0.04596188 12.51598171 -0.37521747 15.21210482 -1 18 C-3.02907167 14.6853333 -3.12742133 12.5684021 -2.625 8.75 C-2.51414062 7.85796875 -2.40328125 6.9659375 -2.2890625 6.046875 C-2.14597656 5.03367187 -2.14597656 5.03367187 -2 4 C-1.34 4 -0.68 4 0 4 C0 2.68 0 1.36 0 0 Z " fill="#257626" transform="translate(73,25)"/>
<path d="M0 0 C3.96 0 7.92 0 12 0 C12 0.33 12 0.66 12 1 C10.02 1 8.04 1 6 1 C7.39195915 3.7839183 9.15575779 3.97898997 12 5 C9.30439815 6.34780093 8.257383 5.67336458 5.4375 4.75 C4.22900391 4.37101562 4.22900391 4.37101562 2.99609375 3.984375 C2.33738281 3.65953125 1.67867188 3.3346875 1 3 C0.67 2.01 0.34 1.02 0 0 Z " fill="#307C33" transform="translate(73,45)"/>
<path d="M0 0 C1.80411967 2.75924185 2.0127245 3.88972103 1.625 7.25 C1.41875 8.1575 1.2125 9.065 1 10 C0.01 10 -0.98 10 -2 10 C-2.33 10.99 -2.66 11.98 -3 13 C-3.66 13 -4.32 13 -5 13 C-4.731875 12.34 -4.46375 11.68 -4.1875 11 C-2.74294953 7.35060933 -1.37128822 3.67754567 0 0 Z " fill="#2C7F2D" transform="translate(54,17)"/>
<path d="M0 0 C1.66666667 0 3.33333333 0 5 0 C4.67 2.97 4.34 5.94 4 9 C3.67 9 3.34 9 3 9 C2.34 7.02 1.68 5.04 1 3 C0.34 4.98 -0.32 6.96 -1 9 C-2.0326802 6.21176345 -2.04509293 5.1322726 -1.0625 2.25 C-0.711875 1.5075 -0.36125 0.765 0 0 Z " fill="#126D12" transform="translate(69,20)"/>
<path d="M0 0 C0.125 2.375 0.125 2.375 0 5 C-0.66 5.66 -1.32 6.32 -2 7 C-2.99 6.67 -3.98 6.34 -5 6 C-4.34 5.67 -3.68 5.34 -3 5 C-3 4.34 -3 3.68 -3 3 C-4.98 3 -6.96 3 -9 3 C-8.67 2.34 -8.34 1.68 -8 1 C-5.2303041 0.27113266 -2.87137415 0 0 0 Z " fill="#B2E6B3" transform="translate(49,79)"/>
<path d="M0 0 C2.64 0 5.28 0 8 0 C8 0.66 8 1.32 8 2 C8.99 2.33 9.98 2.66 11 3 C11 3.33 11 3.66 11 4 C6.35108046 4.32434322 3.77593392 3.776422 0 1 C0 0.67 0 0.34 0 0 Z " fill="#63A263" transform="translate(13,78)"/>
<path d="M0 0 C0.99 0.33 1.98 0.66 3 1 C2.25749403 5.08378283 1.17076699 9.01939223 0 13 C-0.77321882 10.01758453 -1.41196203 7.02419525 -2 4 C-1.34 4 -0.68 4 0 4 C0 2.68 0 1.36 0 0 Z " fill="#0E7E10" transform="translate(62,55)"/>
<path d="M0 0 C0.66 0 1.32 0 2 0 C2 1.32 2 2.64 2 4 C2.99 4.33 3.98 4.66 5 5 C4.34 6.32 3.68 7.64 3 9 C2.01 8.67 1.02 8.34 0 8 C0.33 6.68 0.66 5.36 1 4 C0.34 4 -0.32 4 -1 4 C-0.67 2.68 -0.34 1.36 0 0 Z " fill="#1B751B" transform="translate(44,97)"/>
<path d="M0 0 C2.97 0 5.94 0 9 0 C7.68775452 3.93673644 6.08089673 6.22719294 3 9 C3.66 6.69 4.32 4.38 5 2 C3.35 1.67 1.7 1.34 0 1 C0 0.67 0 0.34 0 0 Z " fill="#BDEDBE" transform="translate(36,92)"/>
<path d="M0 0 C1 2 1 2 0.25 5.5625 C-0.1625 6.696875 -0.575 7.83125 -1 9 C-1.99 9.33 -2.98 9.66 -4 10 C-3.5205537 5.78087253 -2.83374881 3.20336822 0 0 Z " fill="#177017" transform="translate(12,35)"/>
<path d="M0 0 C0.33 0 0.66 0 1 0 C1 1.98 1 3.96 1 6 C2.32 6 3.64 6 5 6 C4.67 8.31 4.34 10.62 4 13 C3.34 12.34 2.68 11.68 2 11 C2 10.01 2 9.02 2 8 C1.34 8 0.68 8 0 8 C0 5.36 0 2.72 0 0 Z " fill="#277928" transform="translate(6,60)"/>
<path d="M0 0 C3.875 4.75 3.875 4.75 5 7 C2.36 7 -0.28 7 -3 7 C-2.67 6.01 -2.34 5.02 -2 4 C-1.34 4 -0.68 4 0 4 C0 2.68 0 1.36 0 0 Z " fill="#227D20" transform="translate(15,65)"/>
<path d="M0 0 C-0.33 0.33 -0.66 0.66 -1 1 C-0.34 1.66 0.32 2.32 1 3 C-0.98 3.33 -2.96 3.66 -5 4 C-5.66 2.68 -6.32 1.36 -7 0 C-2.25 -1.125 -2.25 -1.125 0 0 Z " fill="#077808" transform="translate(74,107)"/>
<path d="M0 0 C-0.99 0.495 -0.99 0.495 -2 1 C-2 1.66 -2 2.32 -2 3 C-4.97 3 -7.94 3 -11 3 C-4.23255814 -1.51162791 -4.23255814 -1.51162791 0 0 Z " fill="#2B7930" transform="translate(45,11)"/>
<path d="M0 0 C2.03833424 1.2739589 4.03852126 2.61061923 6 4 C6 4.66 6 5.32 6 6 C3.03 5.505 3.03 5.505 0 5 C-0.33 4.01 -0.66 3.02 -1 2 C-0.67 1.34 -0.34 0.68 0 0 Z " fill="#1E781F" transform="translate(61,104)"/>
<path d="M0 0 C1.9375 0.6875 1.9375 0.6875 4 2 C4.75 4.625 4.75 4.625 5 7 C3.68 7.33 2.36 7.66 1 8 C0.67 5.36 0.34 2.72 0 0 Z " fill="#087707" transform="translate(59,98)"/>
<path d="M0 0 C2.625 0.375 2.625 0.375 5 1 C4.34 2.98 3.68 4.96 3 7 C2.67 7 2.34 7 2 7 C1.67 5.35 1.34 3.7 1 2 C0.01 2 -0.98 2 -2 2 C-1.34 1.34 -0.68 0.68 0 0 Z " fill="#388331" transform="translate(25,89)"/>
<path d="M0 0 C2.97 0.33 5.94 0.66 9 1 C8.67 1.66 8.34 2.32 8 3 C5.03 2.67 2.06 2.34 -1 2 C-0.67 1.34 -0.34 0.68 0 0 Z " fill="#127515" transform="translate(70,73)"/>
<path d="M0 0 C2.0625 0.4375 2.0625 0.4375 4 1 C4 1.99 4 2.98 4 4 C2.35 4.66 0.7 5.32 -1 6 C-1.042721 4.33388095 -1.04063832 2.66617115 -1 1 C-0.67 0.67 -0.34 0.34 0 0 Z " fill="#087906" transform="translate(24,21)"/>
<path d="M0 0 C1.875 0.25 1.875 0.25 4 1 C5.25 3.0625 5.25 3.0625 6 5 C3.03 4.505 3.03 4.505 0 4 C0 2.68 0 1.36 0 0 Z " fill="#348632" transform="translate(61,97)"/>
<path d="M0 0 C3.63 0.33 7.26 0.66 11 1 C7.5647952 3.29013653 6.014669 3.17842973 2 3 C2 2.34 2 1.68 2 1 C1.34 0.67 0.68 0.34 0 0 Z " fill="#146B13" transform="translate(28,89)"/>
<path d="M0 0 C0.33 0.66 0.66 1.32 1 2 C1.66 2.33 2.32 2.66 3 3 C2.34 4.65 1.68 6.3 1 8 C0.67 7.01 0.34 6.02 0 5 C-0.66 5 -1.32 5 -2 5 C-1.125 1.125 -1.125 1.125 0 0 Z " fill="#137312" transform="translate(56,12)"/>
<path d="M0 0 C2.375 -0.125 2.375 -0.125 5 0 C5.66 0.66 6.32 1.32 7 2 C6.625 4.125 6.625 4.125 6 6 C5.01 5.34 4.02 4.68 3 4 C3.33 3.34 3.66 2.68 4 2 C2.68 1.34 1.36 0.68 0 0 Z " fill="#2E6F2C" transform="translate(75,71)"/>
<path d="M0 0 C0.66 0 1.32 0 2 0 C2.33 0.99 2.66 1.98 3 3 C2.01 4.485 2.01 4.485 1 6 C-0.32 5.34 -1.64 4.68 -3 4 C-1.625 2 -1.625 2 0 0 Z " fill="#267C26" transform="translate(50,65)"/>
<path d="M0 0 C0.99 0.33 1.98 0.66 3 1 C3 2.65 3 4.3 3 6 C2.01 6 1.02 6 0 6 C0 4.02 0 2.04 0 0 Z " fill="#117413" transform="translate(68,38)"/>
<path d="M0 0 C0.33 0.66 0.66 1.32 1 2 C2.65 1.34 4.3 0.68 6 0 C5.01 1.98 4.02 3.96 3 6 C1.68 4.68 0.36 3.36 -1 2 C-0.67 1.34 -0.34 0.68 0 0 Z " fill="#317A33" transform="translate(89,102)"/>
<path d="M0 0 C0 1.98 0 3.96 0 6 C-1.32 5.67 -2.64 5.34 -4 5 C-3.625 3.0625 -3.625 3.0625 -3 1 C-1 0 -1 0 0 0 Z " fill="#087808" transform="translate(43,103)"/>
<path d="M0 0 C3.08089673 2.77280706 4.68775452 5.06326356 6 9 C1.2 5.67692308 1.2 5.67692308 0.1875 2.25 C0.125625 1.5075 0.06375 0.765 0 0 Z " fill="#ADD9AD" transform="translate(55,100)"/>
<path d="M0 0 C2.31 0 4.62 0 7 0 C7 0.66 7 1.32 7 2 C4.69 2.33 2.38 2.66 0 3 C0 2.01 0 1.02 0 0 Z " fill="#88BC87" transform="translate(29,92)"/>
<path d="M0 0 C0 3.10551666 -0.5393715 4.35261084 -2 7 C-3.32 6.67 -4.64 6.34 -6 6 C-4.02 4.02 -2.04 2.04 0 0 Z " fill="#357C34" transform="translate(24,19)"/>
</svg>
